<svg xmlns="http://www.w3.org/2000/svg" viewBox="0 0 394.06 355.41"><defs><style>.cls-1,.cls-4{fill:#fff;}.cls-2,.cls-3{fill:none;stroke-linecap:round;stroke-width:2px;}.cls-2,.cls-4{stroke:#fff;stroke-miterlimit:10;}.cls-3{stroke:#231f20;stroke-linejoin:round;}.cls-4{font-size:72px;font-family:Monospace821BT-BoldItalic, Monospac821 BT;font-weight:700;font-style:italic;}.cls-5{font-size:4px;}.cls-6{letter-spacing:-0.04em;}.cls-7{letter-spacing:0em;}</style></defs><g id="_2_Dark_Mode_" data-name="2 (Dark Mode)"><path class="cls-1" d="M561,400.68l-31.25,77.17s5.37,2.35-188.25-.56c-119.67-1.8-200.28-84.58,33.92-168.84,118-42.47,58.76-66.64,31.15-68.89-19.14-1.56-35.43-3.3-65.07-.27,165.21-38.85,277.26,16,179.8,69C366.26,392.53,373.92,400.68,561,400.68Z" transform="translate(-198.72 -225.18)"/><path class="cls-2" d="M529.72,477.85s5.37,2.35-188.25-.56c-119.67-1.8-200.28-84.58,33.92-168.84,118-42.47,58.76-66.64,31.15-68.89-19.14-1.56-35.43-3.3-65.07-.27" transform="translate(-198.72 -225.18)"/><path class="cls-2" d="M341.47,239.29c165.21-38.85,277.26,16,179.8,69-155,84.24-147.35,92.39,39.7,92.39l-31.25,77.17" transform="translate(-198.72 -225.18)"/><path class="cls-3" d="M504.85,247.09" transform="translate(-198.72 -225.18)"/></g><g id="Cart2Curb_Dark_Mode_" data-name="Cart2Curb (Dark Mode)"><text class="cls-4" transform="translate(0.5 337.86)">CA<tspan class="cls-5" x="86.7" y="0"> </tspan><tspan class="cls-6" x="89.1" y="0">R</tspan><tspan class="cls-7" x="129.93" y="0">T</tspan><tspan x="173.21" y="0">2CURB</tspan></text></g></svg>